PathFileType	4	(X/Y/Z)	C:/Users/opensim2020/Desktop/walking_exp_matlab/subject01_walking08_straight_01.trc	
DataRate	CameraRate	NumFrames	NumMarkers	Units	OrigDataRate	OrigDataStartFrame	OrigNumFrames	
100.00	100.00	4	43	mm	100.00	1059	377	
Frame#	Time	LFHD			RFHD			LBHD			RBHD			C7			T10			CLAV			STRN			RBAK			LSHO			LUPA			LELB			LFRM			LWRA			LWRB			LFIN			RSHO			RUPA			RELB			RFRM			RWRA			RWRB			RFIN			LASI			RASI			LPSI			RPSI			LTHI			LKNE			LTIB			LANK			LHEE			LTOE			RTHI			RKNE			RTIB			RANK			RHEE			RTOE			*39			*40			*41			*42			
		X1	Y1	Z1	X2	Y2	Z2	X3	Y3	Z3	X4	Y4	Z4	X5	Y5	Z5	X6	Y6	Z6	X7	Y7	Z7	X8	Y8	Z8	X9	Y9	Z9	X10	Y10	Z10	X11	Y11	Z11	X12	Y12	Z12	X13	Y13	Z13	X14	Y14	Z14	X15	Y15	Z15	X16	Y16	Z16	X17	Y17	Z17	X18	Y18	Z18	X19	Y19	Z19	X20	Y20	Z20	X21	Y21	Z21	X22	Y22	Z22	X23	Y23	Z23	X24	Y24	Z24	X25	Y25	Z25	X26	Y26	Z26	X27	Y27	Z27	X28	Y28	Z28	X29	Y29	Z29	X30	Y30	Z30	X31	Y31	Z31	X32	Y32	Z32	X33	Y33	Z33	X34	Y34	Z34	X35	Y35	Z35	X36	Y36	Z36	X37	Y37	Z37	X38	Y38	Z38	X39	Y39	Z39	X40	Y40	Z40	X41	Y41	Z41	X42	Y42	Z42	X43	Y43	Z43	

330	3.290	-1026.39624	556.53864	1685.93579	-912.43256	568.49567	1694.20288	-1019.73737	453.01828	1616.36353	-898.75677	462.58151	1623.21167	-975.13184	446.50760	1439.18311	-959.26392	417.32486	1146.21912	-972.68359	592.13672	1375.67419	-975.21100	638.87970	1220.43164	-890.10663	398.55661	1245.87622	-1134.98462	533.52222	1399.95911	-1214.48962	503.21976	1212.67664	-1208.39124	486.64511	1062.51453	-1232.05176	523.82452	954.68823	-1215.11975	603.81445	839.90686	-1236.36487	547.65582	834.53632	-1243.97681	594.37030	762.87518	-820.85968	532.00494	1402.29883	-710.77075	495.08759	1201.02661	-703.72113	509.16672	1076.12537	-678.58710	561.97565	965.74640	-708.47192	661.49762	868.18921	-665.61017	623.47418	860.37250	-671.06769	675.66406	793.24829	-1066.21265	589.72888	943.50995	-848.93860	585.10315	935.34839	-1019.11273	402.84665	952.47217	-874.58032	401.43884	953.19141	-1144.59692	641.87134	631.10333	-1131.43164	667.03827	498.47516	-1145.85168	614.50037	318.71082	-1105.20508	593.06866	97.35139	-1047.49670	554.97968	63.75048	-1125.15125	733.02429	59.92588	-809.12274	518.83673	601.09698	-841.23181	523.04852	443.04941	-842.08337	462.19510	277.13394	-895.83569	424.32501	76.78854	-947.07001	373.96072	39.39278	-891.94025	562.75348	38.69505	-934.86182	548.44183	1724.07910	-3101.94800	1973.20825	1023.46887	-3140.71631	2012.47961	1022.02448			 
331	3.300	-1027.39136	562.44458	1685.61633	-912.97375	574.39404	1693.78320	-1020.05579	458.85538	1615.93176	-899.15912	468.52771	1622.89124	-975.47644	452.26044	1438.84082	-959.53918	422.85043	1145.88342	-973.00140	597.83221	1375.20825	-975.35046	644.45197	1219.91626	-890.22455	404.19846	1245.63379	-1135.17542	539.18268	1399.47119	-1214.76550	508.54742	1212.15381	-1208.56262	491.55728	1062.21777	-1232.25647	527.81592	954.12042	-1215.25977	606.43488	838.32819	-1236.76563	550.48529	833.72546	-1244.51147	596.43933	761.65063	-821.20398	537.88763	1402.06104	-710.86261	501.01797	1200.89014	-703.82312	515.19641	1075.91443	-678.89404	568.53680	965.73511	-709.01520	668.82794	869.10016	-666.11041	630.58478	860.63849	-671.68536	683.45941	794.07074	-1066.18542	595.26868	943.24451	-849.00842	590.20917	934.94720	-1019.37250	408.10263	952.28345	-874.86798	406.61490	953.01215	-1145.23657	645.99402	630.27032	-1131.62085	672.10040	497.96393	-1146.91980	626.99097	316.68307	-1107.13232	615.39276	94.25224	-1049.71423	578.04681	59.14995	-1125.99707	756.95728	62.24728	-809.38715	522.65729	600.76031	-841.09540	525.21069	442.49377	-842.08752	463.27570	277.18350	-895.70685	425.01358	77.07880	-947.23108	374.02310	39.64316	-891.93304	562.80731	38.66439	-935.40204	554.39471	1723.65857	-3101.89111	1973.20081	1023.44653	-3140.64746	2012.46045	1021.97345			 
332	3.310	-1027.42871	568.31970	1684.88928	-913.55481	580.31665	1693.30493	-1020.60004	464.72235	1615.43518	-899.57983	474.36978	1622.49036	-975.94586	457.93625	1438.38037	-959.96973	428.47833	1145.55408	-973.36176	603.57416	1374.70776	-975.55542	650.10321	1219.40649	-890.43121	409.81244	1245.33752	-1135.58179	544.87842	1398.90613	-1215.08228	513.96045	1211.60022	-1208.85168	496.63391	1061.77466	-1232.60107	531.95496	953.51813	-1215.75879	609.55798	836.99933	-1237.25696	553.46417	832.91101	-1244.84717	598.75995	760.35675	-821.69495	543.68762	1401.70251	-711.11243	507.11368	1200.62842	-703.87781	521.12708	1075.64807	-679.22058	575.15631	965.73633	-709.49689	675.91943	869.51788	-666.61957	638.02441	861.02014	-672.32727	691.25391	794.73303	-1066.25146	600.91888	942.91748	-849.06079	595.38849	934.50824	-1019.72400	413.70175	951.93463	-875.13446	411.92084	952.57428	-1146.19604	650.58789	629.28253	-1132.01526	677.16376	497.37637	-1148.00134	639.51416	314.95178	-1108.86890	636.77283	91.42970	-1051.45691	601.35077	55.13039	-1126.86487	779.93982	65.43626	-809.44727	526.40863	600.34491	-841.10931	527.62018	442.15765	-842.24530	464.79095	277.06891	-895.72986	425.24655	77.18265	-947.16144	374.12280	40.10460	-891.70001	562.83875	38.75848	-936.18591	560.27582	1723.16443	-3101.81641	1973.19641	1023.29926	-3140.70752	2012.53943	1022.05713			 
333	3.320	-1028.09412	574.18988	1684.30701	-914.19177	586.26068	1692.81677	-1021.17572	470.55716	1614.90295	-900.25214	480.25839	1621.99878	-976.24573	463.64429	1437.89355	-960.45770	434.02777	1145.05798	-973.81793	609.25055	1374.16785	-975.80365	655.73480	1218.82617	-890.77832	415.43427	1244.94849	-1136.13306	550.60980	1398.33374	-1215.52637	519.50873	1211.01416	-1209.25195	501.78339	1061.37390	-1233.03516	536.25128	952.88440	-1216.06799	612.73981	835.59406	-1237.79724	556.65216	832.10297	-1245.38013	601.32855	759.16138	-822.11938	549.30865	1401.25269	-711.35071	513.01373	1200.36108	-704.25037	527.08997	1075.28516	-679.67859	581.76105	965.54767	-710.19653	683.00922	870.03986	-667.14105	645.14044	861.25891	-673.11987	698.86334	795.31970	-1066.36816	606.68390	942.55518	-849.15729	600.66089	934.03076	-1020.19336	419.68594	951.32703	-875.73871	417.28845	952.08466	-1146.95691	654.45020	628.25250	-1132.29810	682.37976	496.84628	-1149.17957	651.72363	313.57172	-1110.37769	657.71857	89.66264	-1053.58997	622.97668	52.05510	-1127.37854	802.31360	69.15408	-809.58472	530.09521	600.01465	-841.50793	530.06042	441.75229	-842.22089	466.16977	277.03824	-895.86127	425.17493	77.37993	-947.30573	374.18130	40.35947	-891.86023	562.88599	38.72250	-936.74457	566.35681	1722.74121	-3101.92554	1973.06543	1023.62952	-3140.59302	2012.46936	1022.08795			 
